PathFileType	4	(X/Y/Z)	F:\MotionCapture\20160217\3\Generated_files\2_Test03-Dynamic.trc
DataRate	CameraRate	NumFrames	NumMarkers	Units	OrigDataRate	OrigDataStartFrame	OrigNumFrames
120.00	120.00	       6	39	mm	120.00	736	       841
Frame#	Time	Top.Head			Front.Head			Rear.Head			R.Shoulder			R.Offset			R.Elbow			R.Wrist			L.Shoulder			L.Elbow			L.Wrist			R.ASIS			L.ASIS			V.Sacral			R.Thigh			R.Knee			R.Shank			R.Ankle			R.Heel			R.Toe			L.Thigh			L.Knee			L.Shank			L.Ankle			L.Heel			L.Toe			R1			R2			R3			R4			R5			R6			R7			L1			L2			L3			L4			L5			L6			L7			V_Mid_ASIS			V_Pelvis_Origin			V_R.Hip_JC			V_L.Hip_JC			V_R.Knee_JC			V_L.Knee_JC			V_R.Ankle_JC			V_L.Ankle_JC			V_Mid_Hip			V_Mid_Shoulder			V_R.Hand			V_L.Hand			V_R.Toe_Offset_Static			V_L.Toe_Offset_Static			V_R.Toe_Offset			V_L.Toe_Offset			
		X1	Y1	Z1	X2	Y2	Z2	X3	Y3	Z3	X4	Y4	Z4	X5	Y5	Z5	X6	Y6	Z6	X7	Y7	Z7	X8	Y8	Z8	X9	Y9	Z9	X10	Y10	Z10	X11	Y11	Z11	X12	Y12	Z12	X13	Y13	Z13	X14	Y14	Z14	X15	Y15	Z15	X16	Y16	Z16	X17	Y17	Z17	X18	Y18	Z18	X19	Y19	Z19	X20	Y20	Z20	X21	Y21	Z21	X22	Y22	Z22	X23	Y23	Z23	X24	Y24	Z24	X25	Y25	Z25	X26	Y26	Z26	X27	Y27	Z27	X28	Y28	Z28	X29	Y29	Z29	X30	Y30	Z30	X31	Y31	Z31	X32	Y32	Z32	X33	Y33	Z33	X34	Y34	Z34	X35	Y35	Z35	X36	Y36	Z36	X37	Y37	Z37	X38	Y38	Z38	X39	Y39	Z39	

736	6.125																																																																																																																																																																						-3404.83716	34.80973	32.20559	-3893.09961	229.18312	82.87212	-3464.35815	149.45525	1653.79468	-3256.03906	135.62984	49.82428	-3274.88745	95.12747	44.62777	-3296.69800	161.68637	48.31034	-3333.88403	67.04852	1256.59814	-3344.17627	58.95072	29.38597	-3454.87500	113.75249	27.04050	-3341.85327	129.42096	924.35626	-3420.83105	410.17853	1089.75916	-3452.04639	64.42878	35.72977	-3452.96484	-90.27670	1418.07983	-3588.24243	249.95941	87.55495	-3463.80762	281.31696	156.54842	-3900.87476	179.94321	133.82233	-3838.60815	600.91656	371.76581	-3849.30713	138.14435	-2.98676	-3862.73535	617.86719	408.64481	-3508.93994	312.43176	1400.00574	-3703.01392	325.14917	121.27627	-3381.95288	307.44363	152.61432	-3620.75928	284.18921	82.20149	-3654.26270	298.60425	116.57378	-3504.64746	84.51998	28.40779	
737	6.133																																																																																																																																																																						-3404.41992	34.81114	31.91326	-3910.06372	222.95058	85.62961	-3256.45142	139.27219	51.22593	-3297.80005	162.81613	50.36666	-3474.07300	148.22868	1651.87268	-3925.70166	179.86015	106.87311	-3345.55859	59.80918	29.32225	-3492.26050	98.16637	16.45516	-3341.35791	69.63701	1255.46130	-3579.49365	95.16402	1700.93860	-3451.98682	64.25896	35.83054	-3703.16187	232.30827	476.05185	-3518.17554	311.91318	1398.61670	-3718.00928	339.43860	134.65669	-3382.78979	308.95514	154.85544	-3623.89038	285.72681	85.86408	-3960.00146	155.38608	129.24547	-3469.02930	97.12341	39.66269	-3861.19873	498.04959	331.42087	-3214.36987	156.47734	-71.82232	-3656.84619	300.01459	119.80917	
738	6.142																																																																																																																																																																						-3404.10303	35.09291	31.81615	-3359.16821	132.21402	920.30060	-3257.44067	139.32860	51.15448	-3274.12402	96.31915	46.51676	-3298.90698	163.87691	51.00726	-3482.73926	149.90599	1650.32410	-3437.85205	410.00323	1086.68396	-3939.37866	173.64220	109.03481	-3346.21582	60.31863	29.21890	-3383.20190	150.34630	49.21364	-3924.89819	216.46783	86.99013	-3451.82959	64.09093	35.84941	-3883.39258	127.64111	-2.87898	-3504.82397	83.37458	28.44466	-3527.59521	311.62515	1396.13440	-3730.83716	351.75769	146.10323	-3469.07373	96.88236	39.58030	-3214.15723	157.16116	-71.78077	-3659.20825	301.35379	122.67199	
739	6.150																																																																																																																																																																						-3404.41968	33.67923	31.65912	-3789.75635	143.46545	51.52653	-3368.50000	131.87012	917.53632	-3258.28735	141.06352	52.53168	-3273.54175	97.31066	47.54507	-3299.92700	164.67401	51.29286	-3349.58398	62.49062	28.98366	-3447.55493	409.39111	1084.62048	-3985.93115	139.19365	132.52242	-3384.08838	150.65382	49.58416	-3937.84106	210.57411	87.46358	-3491.93066	148.03746	1648.07861	-3451.82715	63.88741	35.87224	-3896.85791	123.91694	-2.88836	-3358.03516	68.98655	1251.49365	-3504.91797	82.73817	28.31733	-3951.75806	166.89523	109.92892	-3801.76074	215.13298	44.42312	-3536.62231	312.04309	1394.52734	-3741.22314	361.56229	155.20805	-3469.20166	96.44926	39.65060	-3213.94653	157.80890	-71.70673	-3660.07349	300.58420	124.90007	
740	6.158																																																																																																																																																																						-3404.20508	33.75116	31.66899	-3377.49780	132.76938	915.30652	-3259.01318	141.64070	52.89793	-3274.91235	96.79110	47.70181	-3301.13110	165.15263	50.89461	-3365.69116	70.86984	1249.90198	-3813.98047	211.89957	43.58829	-3968.35864	129.37616	116.63993	-3456.23438	409.75482	1082.74817	-3384.92310	150.93391	50.04103	-3451.70264	63.56544	35.86906	-3505.03784	82.28938	28.32335	-3339.08032	59.02642	32.45441	-3797.47461	140.32077	51.20863	-3734.74146	223.50279	471.92551	-3545.78564	311.74734	1392.68896	-3750.41455	370.48636	163.10779	-3949.51147	203.17984	86.81434	-3875.74390	626.44165	403.00708	-3469.36987	95.88223	39.87027	-3213.82251	158.51109	-71.47150	-3661.36401	301.78586	125.96455	
741	6.167																																																																																																																																																																						-3403.89746	33.89626	31.65771	-3510.42505	146.83391	1644.36487	-3259.88428	145.20667	55.56767	-3276.37061	95.04611	47.35056	-3302.45752	167.27769	53.82538	-3374.23486	70.43840	1247.57251	-3823.48193	209.08282	41.57311	-3466.53076	409.80997	1080.19690	-3615.75537	89.66875	1690.90674	-3385.95166	151.09746	51.09316	-3510.08594	-205.20529	1085.12878	-3566.16309	188.72879	-11.46018	-3451.76147	63.23231	35.99718	-3808.41113	-11.24334	-90.94726	-3984.18066	64.27694	-0.75543	-3505.15991	81.62517	28.35575	-3587.93896	252.78242	85.92577	-3881.28223	630.48608	407.33008	-3469.55420	95.24989	40.13621	-3213.56836	159.02017	-71.34444	-3661.52515	301.64835	126.28942	
